<?xml version="1.0" encoding="utf-8"?>
<!-- Generator: Adobe Illustrator 16.0.0, SVG Export Plug-In . SVG Version: 6.00 Build 0)  -->
<!DOCTYPE svg PUBLIC "-//W3C//DTD SVG 1.1//EN" "http://www.w3.org/Graphics/SVG/1.1/DTD/svg11.dtd">
<svg version="1.1" id="Layer_1" xmlns="http://www.w3.org/2000/svg" xmlns:xlink="http://www.w3.org/1999/xlink" x="0px" y="0px"
	 width="1000px" height="440px" viewBox="0 0 1000 440" style="enable-background:new 0 0 1000 440;" xml:space="preserve">
<style type="text/css">
<![CDATA[
	.st0{fill-rule:evenodd;clip-rule:evenodd;fill:none;}
	.st1{fill-rule:evenodd;clip-rule:evenodd;}
]]>
</style>
<rect class="st0" width="1000" height="440"/>
<path class="st1" d="M154,72.2c-4.2,10.8-12.4,15.3-22.2,17.9c-11.3,3-22.4,6.6-33.8,9.4c-4.5,1.1-9.5,0.6-14.3,0.8
	c-2.4-5.4-4.8-9.6-6.3-14.2c-1-3.1-2.3-8.2-0.8-9.7C83.8,69,86,58.5,96.3,52.1c15-9.3,31.6-12.5,47.3-18.6
	c18.8-7.3,35.2,0,50.2,11.6c5.7,4.5,11,9.6,17.2,13.5c29.2,18.5,33.7,46.8,19.4,78.1c-7.1,15.5-16.4,29.7-28.3,42.3
	c-7.3,7.7-14.8,13.7-25.2,16.5c-14.6,3.9-33.9,19.1-41.6,32.7c9.6,2.5,18.7,5.1,27.9,7.2c14.7,3.4,29.5,6.8,44.3,9.8
	c20.8,4.3,33.8,18.5,44.6,35.1c3.7,5.7,2.1,12.3-2,17.9c-3.5,4.8-8.3,3.9-13.3,2.8c-9-2-18.2-3.5-27.2-5.5
	c-3.8-0.8-8.4-1.6-10.8-4.1c-7.9-8.4-17.9-8.7-28.2-9.7c-17.5-1.8-34.8-5.4-52.2-6.7c-20.8-1.6-41.9-1-62.7-2.5
	c-7.8-0.5-15.4-4.1-24.2-6.5c1-5.2,1.6-8.9,2.4-12.5c1.1-4.7,4.5-9.9,3.4-14c-3.1-11.5,4.4-16.1,11.8-20.6c5.1-3.1,10-5.6,12.3-11.8
	c0.9-2.5,3.4-4.9,5.7-6.5c22.7-15.9,44.2-33.6,72.5-39.5c7-1.5,13.7-7.3,19.3-12.5c8.1-7.6,15-16.6,22.6-24.8
	c4-4.3,4.8-8.6,3.5-14.6C180.6,90.2,172,79.1,154,72.2z"/>
<path class="st1" d="M933.3,361.9c-3.3,2.3-6.4,4.5-9.6,6.7c-1.6-1.1-3.1-1.6-3.8-2.7c-16.1-23.4-30.7-47.5-38-75.3
	c-1.7-6.6-4.4-12.9-6.6-19.4c-8.7-25.4-23.8-33.7-49.6-27.4c-5.2,1.3-10.5,1.8-15.7,3.1c-16.8,4-33.7,7.6-50.2,12.6
	c-5.7,1.7-10.7,6.5-15.4,10.7c-3.7,3.3-6.4,8.1-12.1,5.8c-6.3-2.5-5.4-8.6-5.4-13.9c-0.1-22.9,0.1-45.8-0.2-68.7
	c-0.2-16.6-1.1-33.1-1.4-49.7c-0.3-16,3.2-20.7,18.4-26.6c1.6-0.6,3.1-2,4.2-3.3c6.6-7.6,13.9-9.3,22.6-5.2
	c9.9,4.7,13.1,9.8,9.7,21.2c-4.6,15.7-1.5,31.5-3,47.2c-0.4,3.9-0.8,7.7-0.6,11.6c0.3,6.1,1,12.3,1.6,18.5c27-2.3,52.4-4.4,79.6-6.7
	c-0.6-6.4-1.2-11.6-1.6-16.7c-1.2-15-3.2-30.1,5.5-43.9c2.9-4.6,17.9-9.4,24-7.4c7.7,2.4,13.2,9.4,12,17.6c-1.3,9.3,1.6,17,4.7,25.3
	c2.7,7.5,4.2,16.3,3.3,24.3c-2.5,22.3,7.8,40.5,16.4,59.6c14.8,32.8,31.7,64.8,38,100.9c2,11.5,5.8,22.7,8.5,34.1
	c1,4.4,1.2,9,0.1,14.1C956.6,392.6,948.9,374.5,933.3,361.9z"/>
<path class="st1" d="M589.1,165.5c-11.1-3.2-22.1-6.8-33.4-9.5c-3.5-0.8-7.5,0.3-11.2,1c-3.5,0.7-7,2-12.8,3.8
	c3.3-12.3,3.8-22.2,13.8-29.5c7.7-5.6,13.3-14,19.8-21c5.7-1.3,11.8-2.4,17.7-3.9c7-1.9,13.9-4.4,20.9-6.1c2.7-0.6,6.6-0.8,8.5,0.8
	c9.9,8.2,24,11.5,29.8,24.8c1.7,4,4.6,7.4,6.8,11.3c1.9,3.4,5.1,7,5,10.5c-0.4,19.3,7,39.2-1.6,57.7c-5,10.8-13.7,19.9-21.2,29.5
	c-12.3,15.6-27.7,27.2-45.9,35.2c-13.2,5.8-23.7,15.5-32.8,26.3c-7.9,9.3-6.4,15.1,4.8,20.4c36.1,17.1,72.5,33.7,108.4,51.2
	c7.2,3.5,13.5,9.5,18.9,15.7c5.3,6.2,2.6,12.5-5.6,13.7c-5.6,0.8-11.8,0.2-17.3-1.3c-19.2-5.4-39.2-8-56.9-18.3
	c-3.6-2.1-8.5-2.1-12.8-3c-24.8-5.1-49.6-10.5-74.5-15c-6.5-1.2-13.5-0.2-20.3,0.5c-12.4,1.2-19.8-6.2-17.1-18.3
	c0.9-4.2,3.1-8.3,5.6-11.8c13.6-19.5,27.2-39,41.2-58.2c12.1-16.4,25.7-31.6,41.8-44.3c0.8-0.6,1.5-2,2.1-1.9c16,2,21.1-13,31-20.3
	c14.6-10.7,17.1-22.7,9.4-35.4C604.5,159,600.1,158.1,589.1,165.5z"/>
<path class="st1" d="M341.5,261c1-14-8.8-20.2-18.6-27c-21.7-14.9-36.6-34.4-40.5-61.4c-2.1-15,1.8-28,9.4-40.3
	c13.3-21.3,29.1-40.3,52.6-51.1c6.8-3.1,13.6-4.6,21.2-2.4c4.6,1.4,9.7,1.4,14.5,1.3c26.2-0.7,45.6,10.5,59.7,32.4
	c5.5,8.6,12.7,16,18.7,24.2c15.8,21.6,20.8,44.6,8.5,69.8c-2.5,5.2-4.1,11.1-5,16.8c-2,13.4-7.6,25-15.4,34.6
	c-9.7,2.6-18.6,5.1-27.5,7.5c-7.1,1.9-13.8,2.6-21.5,1c-7.8-1.7-16.9-1.4-24.5,1c-8.4,2.7-14.8,1.9-21.8-2.8
	C349,262.8,345.4,262.3,341.5,261z M428.7,184.4c-3.6-9.7-6.5-18.4-10.1-26.8c-4.1-9.4-8.5-18.7-13.2-27.7
	c-5.3-10.1-12.7-13.5-24.4-11.4c-20.9,3.8-34.2,17.6-44.4,35.1c-12.5,21.6,0.9,47.4,25.9,49.8c6.8,0.7,13.7,1.1,20.5,0.9
	C400.9,203.8,415.1,195.1,428.7,184.4z"/>
</svg>
