<?xml version="1.0" encoding="utf-8"?>
<!-- Generator: Adobe Illustrator 16.0.0, SVG Export Plug-In . SVG Version: 6.00 Build 0)  -->
<!DOCTYPE svg PUBLIC "-//W3C//DTD SVG 1.1//EN" "http://www.w3.org/Graphics/SVG/1.1/DTD/svg11.dtd">
<svg version="1.1" id="Layer_1" xmlns="http://www.w3.org/2000/svg" xmlns:xlink="http://www.w3.org/1999/xlink" x="0px" y="0px"
	 width="1000px" height="300px" viewBox="0 0 1000 300" style="enable-background:new 0 0 1000 300;" xml:space="preserve">
<style type="text/css">
<![CDATA[
	.st0{fill-rule:evenodd;clip-rule:evenodd;fill:none;}
	.st1{fill-rule:evenodd;clip-rule:evenodd;}
]]>
</style>
<rect class="st0" width="1000" height="300"/>
<path class="st1" d="M181.5,231.7c-11.9-6.2-18.2-15.3-25.2-23.7c-3.2-3.8-4.8-11.9-11.3-8.4c-3.3,1.8-4.8,8.9-5.2,13.8
	c-0.8,9.5-0.2,19.1-0.2,30c-7.3-2.5-8.7-7.7-10.5-12.5c-2.6-6.8-5.5-13.5-7.8-20.5c-2.4-7.3-7.5-8.4-13.9-6.4
	c-4.6,1.5-9,3.6-13.6,5.2c-12.5,4.4-12.6,4.3-22.9-8.9c7.1-0.7,13.7-0.8,20.1-2.1c6.1-1.3,11.9-4.2,18.1-5.6c5.4-1.3,9.4-2.8,8-9.5
	c-1.4-6.5-6.2-7.2-11.3-6.1c-8.1,1.8-16,4.4-24,6.3c-2.5,0.6-5.3,0.1-9.1,0.1c2.5-11.1,11.8-9.9,18.4-12.2
	c7.3-2.6,14.9-4.2,21.9-6.2c4-14.7-0.9-31.7,17.1-42.5c1.3,8.3,1.9,14.4,3.4,20.3c1.4,5.2,0.8,12.2,9.8,13.9
	c1.5-12.1,4.3-23.6,18.5-30.5c2.3,6.5,4.7,12,6.1,17.8c1.7,7,5.4,10,12.6,8.8c2.4-0.4,4.8-0.8,7.3-0.8c10.7,0.1,12.7,2.7,12.4,15.9
	c-8.2,2.1-18.6-9.5-26,4c8,6.3,23.4,1.7,23.5,17.8c0.1-0.1-0.4,1.2-1,1.3c-19.1,2.9-19.1,2.9-17.2,21.9
	C179.8,218.6,180.6,224.2,181.5,231.7z"/>
<path class="st1" d="M556.9,243.4c-3.5-2.2-5.4-2.8-6.4-4.1c-21.8-27.6-34.7-58.2-34.4-94.1c0.2-25.3-1.6-50.7-3-76
	c-0.7-12.2,0.9-23.3,9.8-32.5c6.4-6.6,10.9-5.9,13.4,3.1c2.2,8.4,3.1,17.3,3.7,26c1.4,24.3,1.7,48.7,3.6,73
	c2,26.2,5.1,52.4,8.1,78.5C552.5,225.3,554.8,233.2,556.9,243.4z"/>
<path class="st1" d="M494,231.6c-44.4-6.8-87.8-10.6-133.8,2.4c1.6-6.7,1.5-10.7,3.4-13.4c6.2-8.7,13-17,19.7-25.3
	c8.2-10.3,16.8-20.3,24.8-30.7c2.6-3.3,4.1-7.5,7.3-13.5c-5.4-0.8-9-2.1-12.2-1.6c-12,1.9-24,4.5-36,6.8c-3.3,0.6-6.7,1.4-10.1,1.4
	c-1.5,0-3.8-1.6-4.4-3c-0.5-1.4,0.3-3.9,1.4-5c1.7-1.6,4-2.9,6.3-3.4c18.5-4.2,37-8.5,55.7-12c5.3-1,12.8-2.7,15.6,4.2
	c2.6,6.5,0.9,13.3-3.6,19.3c-9.4,12.4-18.7,24.9-27.8,37.4c-2.2,3-3.8,6.4-6.6,11.3c4.9,0,8,0.3,11-0.1c8.2-1,16.4-2.3,24.7-3.3
	c25.3-3.3,45.6,7.1,63.5,23.8C493.5,227.3,493.4,228.5,494,231.6z"/>
<path class="st1" d="M616.5,180.9c31.7,9.3,59.3,23.9,76,55.2c-19.3-6.3-36.9-13-55-17.7c-16.4-4.2-31-11.5-44.7-21
	c-4.8-3.3-9.3-7.2-13.3-11.4c-6-6.2-6.6-11.5-1.3-18.2c13.1-16.5,27-32.7,45.2-43.2c14.9-8.6,29.2-8.6,40.1,6.9
	c6.4,9.2,5.6,17-3.8,23.6c-8.7,6.1-18.2,11-27.6,16.1c-4.6,2.5-9.8,4.1-14.7,6.1C617.1,178.5,616.8,179.7,616.5,180.9z M591.7,165
	c4.4,6.9,9.3,11.5,16.2,7.9c15-7.9,29.8-16.5,44.1-25.5c5.6-3.5,4.9-10-0.8-13.1c-7-3.7-14.1-5.8-22.4-2.4
	C612.9,138.5,601,149.3,591.7,165z"/>
<path class="st1" d="M898.9,122.7c-7.8,19.6-3.6,39.4-2,59c2.1,26.1,3.2,33.4-25.6,41.7c-6,1.7-12,4.8-18,4.7
	c-12.1-0.1-19.2-9-24.3-18.6c-6.7-12.7-10.1-26.3-9.5-40.9c0.5-13.3,3.7-17.5,19.3-22.9c0.6,3.8,1.5,7.4,1.6,11
	c0.6,16.5,5.7,31.5,13.8,45.8c4.2,7.4,9.8,12.3,18.9,10.8c8.2-1.3,14-7.2,14.5-17.7c0.8-14.1-0.5-28.2-0.5-42.3
	c0-7.8,0.4-15.6,1.5-23.3C889.4,124.4,890.1,124.4,898.9,122.7z"/>
<path class="st1" d="M285.6,135.4c-1.4-1.6-3.9-4.3-6.4-7.1c1.3-1.1,2.1-2.3,2.6-2.2c19.7,4,21.8,5.9,24.6,25
	c2.7,18.3,4.4,36.8,7.3,55c2.4,15.4,6,30.5,9,45.8c0.3,1.8,0,3.7,0,6.5c-8.5-3-11.3-10.1-14.9-16.1c-14.9-25.2-20.9-53.5-26-81.8
	C280.6,153.5,284,145.6,285.6,135.4z"/>
<path class="st1" d="M782.4,198.6c-3.9-2.8-6.7-5.4-10-7c-9.2-4.5-18.7-8.4-27.9-12.9c-4.8-2.4-9.5-5.1-13.6-8.5
	c-4-3.4-5.4-8.4-2.5-13.3c6.4-10.9,15.7-18.7,27.3-23.3c2.8-1.1,6.6,0.4,9.9,3.3c-4.5,2.4-9.5,4.2-13.5,7.3c-7.6,5.8-7.7,9.7-1.3,17
	c10,11.5,23.6,16.9,37.4,22c4.4,1.6,8.7,3.2,15.8,5.9c-8.3,8.7-14.3,15.9-21.3,22.2c-13.7,12.3-28.2,23.9-41.8,36.3
	c-2.8,2.6-4,7.5-4.8,11.6c-0.8,4.1-0.2,8.5-0.2,13.1c-13-6.3-15.4-14.1-7.7-23.6c12.9-16,29.5-27.9,44.9-41.2
	C775.9,205.1,778.5,202.3,782.4,198.6z"/>
<path class="st1" d="M307,109.8c-14.5-7-27.3-13.4-40.4-19.4c-6.4-2.9-10.6-7.1-9.7-14.4c0.6-5.4,9.1-12.1,15.4-10.9
	c5.4,1,11.2,3.7,15.1,7.4C297.8,82.3,303.6,95.1,307,109.8z"/>
</svg>
