<?xml version="1.0" encoding="utf-8"?>
<!-- Generator: Adobe Illustrator 16.0.0, SVG Export Plug-In . SVG Version: 6.00 Build 0)  -->
<!DOCTYPE svg PUBLIC "-//W3C//DTD SVG 1.1//EN" "http://www.w3.org/Graphics/SVG/1.1/DTD/svg11.dtd">
<svg version="1.1" id="Layer_1" xmlns="http://www.w3.org/2000/svg" xmlns:xlink="http://www.w3.org/1999/xlink" x="0px" y="0px"
	 width="1000px" height="1000px" viewBox="0 0 1000 1000" enable-background="new 0 0 1000 1000" xml:space="preserve">
<circle fill="#FFFFFF" cx="500" cy="500" r="500"/>
<path d="M640,391.9c1.4-1.6,2.4-3,3.6-4.2c4.4,1.2,6.8-0.2,9.1-4c4.4-8.1,5.6-16.9,7.7-25.8c0.8-4,0.6-8.5,0.8-12.7
	c0.4-3.8,1-7.7,1.2-11.5c0.4-7.9-0.4-15.7-3.2-23c-1.6-4-3.6-8.1-5.6-12.1c-1-2-2.6-4-4.2-5.6c-4.6-4.6-9.3-9.1-14.1-13.3
	c-4.6-3.8-8.7-8.3-14.5-10.5c-2.2-0.8-3.8-2.8-6-4.2c-6.4-3.8-13.3-6.6-19.9-10.1c-6.4-3.2-12.9-6-20.1-7.5c-4.2-0.8-8.3-3-12.3-4.6
	c-0.6-0.2-1.2-0.8-2-1c-7.3-0.8-13.5-5-20.9-5c-2.4,0-5-0.8-7.5-1.4c-1.2-0.4-2.4-1-3.6-1.8c-3.4-2.6-4-6.4-0.8-9.5
	c3.6-3.2,7.3-6.4,11.5-8.9c5.4-3,11.3-5.2,16.9-7.7c4.2-1.8,8.5-3.4,12.7-5c6.6-2.6,13.5-2.4,20.5-2.8c6.4-0.4,12.9-0.6,19.3-1.4
	c10.5-1.2,20.9-3,31.4-4.6c2.6-0.4,5.2-0.2,7.9-0.6c5-0.6,9.9-1.4,14.9-1.8c2.6-0.2,5.2,0.2,7.9,0.4c2.4,0.2,5,0.8,7.5,0.6
	c12.3-1,24.4,1,36.7,2.2c4.8,0.4,9.5,2.4,14.1,3.6c3.2,0.8,6.4,1.2,9.5,2c4.6,1.2,9.3,2.6,13.9,4c4.8,1.6,9.7,3.2,14.5,5
	c11.3,3.8,22.4,7.9,32.6,14.3c6.2,3.8,11.9,8.1,17.3,12.9c5.4,5,11.5,9.7,16.7,14.9c3.8,3.8,7.5,8.1,10.9,12.1
	c4.8,5.4,9.9,10.9,14.3,16.7c2.6,3.4,4.6,7.5,6.6,11.3c2,3.6,4,7.5,6,11.3c0.6,1.2,1.4,2.4,1.6,3.6c1.4,8.5,3,16.7,4,25.2
	c1,8.9-0.6,17.5-1.4,26.4c-0.2,3.2-0.8,6.4-1,9.7c-0.6,8.1-3.6,15.5-7.9,22.4c-3.2,5.2-6.8,10.3-10.1,15.5
	c-7,11.5-16.9,20.5-25.8,30.4c-3.8,4-7,8.7-10.7,12.9c-1.2,1.4-1.2,3,0,4.4c1.2,1.2,2.6,2.4,4,3.2c3.4,1.8,6.8,3.4,10.3,5.2
	c0.8,0.4,1.8,0.8,2,1.6c1.6,3,4.4,4.2,7,5.6c2.8,1.6,5,3.8,7.7,6c4.6,4,9.5,8.1,13.9,12.1c2.2,2,4,4.2,5.8,6.4
	c1,1.4,1.6,3.2,2.8,4.4c6.2,6.2,9.5,14.5,13.9,22c2.2,3.6,3.2,7.5,2.8,11.7c-0.4,5,0.2,10.1-1.8,14.9c-2.6,6.4-5.4,12.7-10.5,17.7
	c-4,3.8-7.9,8.1-11.7,12.1c-5,5.4-11.5,9.3-18.5,10.7c-5.8,1.2-12.1,2.6-18.1,0.4c-4.6-1.6-8.3-4.4-11.5-7.9c-2.6-2.8-5-6.2-7.7-9.1
	c-3.2-3.6-6.4-7.3-10.3-10.3c-5.2-4.2-10.3-8.9-17.1-11.1c-4.4-1.4-8.5-4.2-13.3-4c-2.2,0-4.4,0.2-6.4,0.6
	c-11.1,2.8-20.1,9.3-28.8,16.5c-2.6,2.2-3.6,4.8-1.2,8.5c4.2,6.2,9.1,11.3,15.7,15.1c6.4,3.8,12.5,8.3,18.7,12.5
	c1,0.8,2,1.8,2.8,2.8c3,3,6,6,9.1,9.1c3.2,3,5.8,6,6.8,10.7c0.8,3.6,2.4,7.1,3,10.7c0.4,3.4,0,7-0.4,10.5c-0.2,1-1.2,2-2,2.8
	c-4.2,3.2-8.5,6.6-13.1,9.7c-6,3.6-12.3,6.8-18.5,10.3c-8.1,4.4-16.5,7.5-25.6,9.5c-4.8,1-9.5,0-13.7-2c-6.2-2.8-12.3-5.6-18.1-9.1
	c-5.6-3.2-10.9-7.5-16.5-10.9c-8.3-5-15.5-11.9-24.6-15.3c-7.9-2.8-14.9-7.7-22.8-10.5c-3.8-1.4-7.9-2.4-11.7-3.8
	c-3.8-1.4-7.7-3-11.5-4.2c-4.4-1.4-8.9-2.4-13.3-3.4c-5-1-10.1-2-15.1-2.6c-2.6-0.4-5.2-0.2-7.9,0.2c-3,0.6-5.4-1.2-8.1-1.4
	c-0.6,0-1.4-0.6-2-0.8c-9.3-1-18.3-2-27.6-3c-12.3-1.2-24.6-2.6-36.9-3.6c-3.4-0.4-6.6-0.4-10.1-0.2c-8.1,0.4-16.1,0.8-24.2,1.4
	c-2.6,0.2-5.2,0.8-7.9,1.2c-6.2,1.2-12.7,2-18.7,4.6c-4.2,1.6-8.9,2-13.1,3.8c-7,3-13.7,6.8-20.3,10.3c-7.5,3.8-14.9,7.7-22.4,11.7
	c-4.2,2.2-8.3,4.4-13.1,5.2c-0.8,0.2-1.8,0.6-2.2,1.2c-3.6,5-9.3,7-14.1,10.3c-0.6,0.4-1.2,0.8-1.8,1.2c-6,4.2-12.1,8.3-17.9,12.7
	c-11.3,8.7-24,13.3-38.3,14.5c-6.6,0.6-12.1-1.6-16.7-6s-9.5-8.5-13.7-12.9c-2.6-2.6-4.8-5.8-7-9.1c-2.4-3.2-2.4-7.5-2-11.1
	c0.2-2,2.4-4.2,4.4-5.8c5.4-4.4,10.9-8.3,17.1-11.7c9.9-5.6,19.5-11.7,28.8-17.9c3.2-2.2,5.8-5.4,8.1-8.7c3.8-5.6,3-8.7-1.4-14.1
	c-4-4.8-9.1-7.9-14.5-10.3c-1-0.4-2.2-1-3.4-1c-6.8,0-13.7-0.6-20.3,2.6c-5.6,2.8-11.5,5.2-17.1,7.7c-4.8,2-9.7,4.8-14.7,6
	c-7.3,1.8-14.7,4-21.8-0.4c-5.4-3.4-11.1-6.6-14.1-12.9c-0.6-1.4-1.4-2.6-2.4-3.6c-4.2-4-5.8-9.5-7.7-14.7c-0.4-1.4,0-3.4,0.8-5
	c0.8-1.6,2-2.8,3.4-4c5.8-4.6,10.9-10.1,17.7-13.7c6.6-3.6,13.1-7.5,19.9-10.3c4.6-2,9.1-4.8,13.1-8.1c1.8-1.4,2.6-4.4,3.6-6.8
	c0.6-1.6-0.8-2.4-2-2.8c-2.2-0.6-4.2-1.2-6.4-1.6c-7-1.4-14.1-2.8-21.1-4.2c-0.2,0-0.2,0-0.4,0c-8.5,0.2-16.3-2.2-24.4-4.2
	c-2.8-0.6-5.6-1.6-8.5-2.2c-3.6-0.6-7.3-1.2-10.9-1.6c-1.2-0.2-2.6-0.4-3.8-0.8c-2.8-0.6-5.4-1.2-8.1-2c-2.4-0.8-4.8-2-7.3-3
	c-6.8-2.4-13.7-4.6-20.3-7.3c-4.4-1.8-8.5-4-12.7-6c-3-1.4-6-2.8-9.3-4c-5.6-2.2-11.3-4.2-16.7-6.8c-6.2-2.8-10.9-7.5-13.1-14.1
	c-1.6-4.6-3-9.3-4.4-13.9c-3.8-11.5,5.4-22.6,13.7-25c4.8-1.4,9.9-1.2,14.5,1.6c4.4,2.8,8.7,6,13.5,8.5c3,1.6,6.6,2.2,10.1,2.8
	c8.7,1.8,17.5,0.8,26.4,1c0.4,0,0.8,0,1.4-0.2c10.1-2.2,20.1-4,30.2-6.6c8.9-2.2,17.5-5,26.2-7.7c3-1,6-2.6,8.9-3.8
	c6.6-2.6,13.3-5.4,20.1-8.1c7-2.8,13.5-6.6,18.9-11.9c6.6-6,13.3-12.1,19.7-18.3c4.6-4.4,8.3-9.5,10.7-15.5c1.2-3.2,3.2-6,4.2-9.3
	c3.6-10.9,6.8-21.8,8.5-33.2c0.8-5.4,1.8-11.1,3.2-16.5c1-4.4,6-6.2,9.9-3.6c2.6,2,5.4,4,8.5,5.4c1.4,0.6,2.4,2.4,3.2,4
	c3.8,6.8,7.5,13.7,10.9,20.5c2.6,5.4,4.8,11.1,7.1,16.5c1.2,2.8,2.2,5.6,3.6,8.5c1.6,3.2,4.2,3.4,6,0.6c2.8-4.4,5.6-9.1,7.9-13.7
	c4.2-8.9,7.7-18.1,13.9-26c4.4-5.6,10.7-7.9,17.9-6.4c2.4,0.6,4.4,2,5.2,4.2c1.8,5.4,3.6,10.9,5.2,16.3c0.2,0.6,0.2,1.2,0,1.8
	c-1.4,4,0.2,7.5,2.2,10.9c2.4,4.2,3.6,8.7,3.8,13.5c0.2,6.6,3,12.5,6.2,18.3c3.8,7.3,8.3,14.3,12.5,21.4c0.8,1.4,1.8,2.6,2.8,4
	c4.6,6.4,11.1,8.9,18.5,8.1c3.4-0.4,6.6-2.2,9.7-3.8c3.8-2.2,7.3-5,10.9-7.7c6.4-4.8,12.5-9.7,18.9-14.5c3.8-2.8,8.1-5.6,12.3-7.9
	c2.8-1.4,6.2-1.8,9.5-2.2c6.2-0.6,12.3-1.2,18.5-1.2c5,0,9.9,0.8,14.9,1.4c4.8,0.6,9.7,1.2,14.3,2.2c6.6,1.4,13.3,3.4,20.1,5.2
	c4.6,1.2,9.5,2.2,14.1,3.8c3.2,1,6.2,2.6,9.3,4c7.9,3.8,15.5,7.9,22.6,12.9C637.2,390.5,638.6,390.9,640,391.9z"/>
<path fill="#FFFFFF" d="M339.4,392.7c1.6,0.2,4,0.2,6.2,0.8c6.4,1.6,10.7,6.4,13.9,11.9c2.8,4.4,3.4,9.7,3.4,14.7
	c0.2,7.5-4,12.3-10.7,15.1c-4.4,1.8-8.9,3-13.5,2.6c-5.8-0.4-11.5-1.8-15.7-6.4c-3.6-4-7.1-8.1-8.5-13.3c-1-3.8-1.6-7.7,0.2-11.5
	c1-2.2,1.6-4.6,2.8-6.6c3.2-5.2,8.5-7,14.3-7.3C334,392.3,336.4,392.5,339.4,392.7z"/>
<g>
	
		<rect x="294.9" y="681.5" transform="matrix(0.9974 -7.236048e-002 7.236048e-002 0.9974 -55.3766 40.3342)" fill="none" width="468.2" height="206"/>
	<path d="M362.4,727.2c-1.6,5.2-5.3,7.6-9.8,9.1c-5.2,1.8-10.2,3.8-15.5,5.5c-2.1,0.7-4.4,0.6-6.7,0.9c-1.3-2.4-2.6-4.3-3.4-6.4
		c-0.6-1.4-1.4-3.8-0.7-4.5c3.1-3.7,3.8-8.7,8.4-12c6.7-4.9,14.3-6.9,21.5-10.3c8.5-4,16.4-1.2,23.8,3.7c2.8,1.9,5.5,4.1,8.5,5.7
		c14.3,7.7,17.3,20.7,11.7,35.8c-2.8,7.5-6.7,14.4-11.8,20.7c-3.1,3.8-6.4,6.9-11.2,8.6c-6.7,2.3-15.2,10.1-18.3,16.7
		c4.6,0.8,8.9,1.7,13.3,2.4c7,1.1,14,2.2,21,3.1c9.9,1.3,16.4,7.5,22,14.9c1.9,2.5,1.4,5.7-0.3,8.4c-1.5,2.4-3.7,2.1-6.1,1.8
		c-4.3-0.6-8.6-1-12.9-1.6c-1.8-0.2-4-0.5-5.2-1.5c-4-3.7-8.7-3.5-13.5-3.6c-8.2-0.2-16.4-1.3-24.6-1.4c-9.8,0-19.6,1-29.4,1
		c-3.7,0-7.3-1.4-11.5-2.2c0.3-2.5,0.4-4.2,0.7-5.9c0.4-2.2,1.8-4.8,1.1-6.7c-1.8-5.3,1.5-7.7,4.8-10c2.3-1.6,4.5-3,5.3-5.9
		c0.3-1.2,1.4-2.4,2.4-3.2c10.1-8.2,19.5-17.2,32.5-20.9c3.2-0.9,6.1-3.9,8.6-6.5c3.5-3.8,6.4-8.3,9.7-12.3c1.7-2.1,2-4.2,1.1-6.9
		C375.4,734.7,371.1,729.8,362.4,727.2z"/>
	<path d="M736.2,836.1c-1.5,1.2-2.8,2.3-4.3,3.5c-0.8-0.5-1.5-0.6-1.9-1.1c-8.3-10.4-15.9-21.1-20.3-33.9c-1-3-2.5-5.9-3.7-8.8
		c-4.9-11.6-12.3-14.9-24.1-11.1c-2.4,0.8-4.8,1.2-7.2,2c-7.7,2.4-15.5,4.7-23,7.6c-2.6,1-4.8,3.4-6.8,5.5c-1.6,1.7-2.7,4-5.5,3.1
		c-3-1-2.8-3.8-3-6.3c-0.8-10.7-1.5-21.4-2.4-32.1c-0.7-7.7-1.6-15.4-2.3-23.2c-0.7-7.5,0.8-9.8,7.7-13c0.7-0.3,1.4-1,1.8-1.7
		c2.8-3.8,6.2-4.8,10.4-3.2c4.8,1.9,6.5,4.1,5.2,9.6c-1.6,7.5,0.4,14.8,0.2,22.1c-0.1,1.8-0.1,3.6,0.1,5.4c0.3,2.8,0.9,5.7,1.4,8.6
		c12.5-2,24.3-3.8,36.9-5.8c-0.5-3-1-5.4-1.3-7.7c-1.1-7-2.5-13.9,1.1-20.7c1.2-2.2,8-5,11-4.3c3.7,0.9,6.5,3.9,6.2,7.8
		c-0.3,4.4,1.3,7.9,3.1,11.7c1.5,3.4,2.5,7.5,2.4,11.2c-0.4,10.5,5,18.6,9.7,27.3c8,14.8,17,29.2,21.2,45.8
		c1.3,5.3,3.5,10.4,5.1,15.6c0.6,2,0.9,4.2,0.5,6.6C748.1,849.6,743.9,841.4,736.2,836.1z"/>
	<path d="M568.8,756c-5.3-1.1-10.5-2.4-15.9-3.3c-1.7-0.3-3.5,0.4-5.2,0.8c-1.6,0.4-3.2,1.2-5.8,2.2c1.1-5.9,1-10.5,5.4-14.2
		c3.4-2.9,5.7-7,8.5-10.5c2.6-0.8,5.4-1.5,8.1-2.4c3.2-1.1,6.3-2.5,9.6-3.6c1.2-0.4,3.1-0.6,4,0.1c4.9,3.5,11.6,4.6,14.8,10.6
		c0.9,1.8,2.4,3.3,3.6,5c1,1.5,2.6,3.1,2.7,4.7c0.5,9,4.6,18.1,1.2,27c-2,5.2-5.7,9.8-8.9,14.5c-5.2,7.7-12,13.6-20.2,18
		c-6,3.2-10.5,8-14.4,13.4c-3.4,4.6-2.5,7.3,2.9,9.4c17.4,6.8,35,13.3,52.4,20.2c3.5,1.4,6.6,4,9.4,6.7c2.7,2.7,1.6,5.7-2.2,6.6
		c-2.6,0.6-5.5,0.5-8.1,0c-9.1-1.9-18.6-2.4-27.2-6.6c-1.8-0.9-4-0.7-6.1-1c-11.8-1.5-23.5-3.2-35.3-4.5c-3.1-0.3-6.3,0.4-9.5,0.9
		c-5.8,1-9.5-2.2-8.6-8c0.3-2,1.2-4,2.2-5.7c5.7-9.6,11.4-19.1,17.3-28.6c5.1-8.1,10.9-15.6,18-22.1c0.4-0.3,0.6-1,0.9-1
		c7.5,0.4,9.4-6.8,13.8-10.5c6.5-5.5,7.2-11.2,3.2-16.8C575.7,752.5,573.6,752.2,568.8,756z"/>
	<path d="M456.4,809c0-6.6-4.8-9.1-9.6-12c-10.6-6.2-18.3-14.8-21-27.3c-1.5-6.9-0.1-13.1,3-19.1c5.5-10.4,12.2-19.8,22.8-25.6
		c3.1-1.7,6.2-2.6,9.8-1.8c2.2,0.5,4.6,0.3,6.8,0.1c12.2-1.2,21.6,3.4,29,13.1c2.9,3.8,6.5,7,9.6,10.7c8.1,9.6,11.2,20.1,6.3,32.3
		c-1,2.5-1.5,5.3-1.8,8c-0.5,6.3-2.7,11.9-6,16.7c-4.4,1.5-8.5,3-12.6,4.4c-3.3,1.1-6.4,1.7-10,1.2c-3.7-0.5-7.9-0.1-11.4,1.3
		c-3.8,1.5-6.8,1.4-10.3-0.6C459.9,809.6,458.2,809.5,456.4,809z M494.5,770.3c-2-4.4-3.7-8.4-5.6-12.2c-2.2-4.3-4.6-8.4-7.1-12.5
		c-2.8-4.5-6.4-5.9-11.8-4.5c-9.6,2.5-15.4,9.4-19.5,17.9c-5.1,10.5,2,22.1,13.8,22.4c3.2,0.1,6.4,0,9.6-0.3
		C482.2,780.3,488.5,775.7,494.5,770.3z"/>
</g>
</svg>
