<?xml version="1.0" encoding="utf-8"?>
<!-- Generator: Adobe Illustrator 16.0.0, SVG Export Plug-In . SVG Version: 6.00 Build 0)  -->
<!DOCTYPE svg PUBLIC "-//W3C//DTD SVG 1.1//EN" "http://www.w3.org/Graphics/SVG/1.1/DTD/svg11.dtd">
<svg version="1.1" id="Layer_1" xmlns="http://www.w3.org/2000/svg" xmlns:xlink="http://www.w3.org/1999/xlink" x="0px" y="0px"
	 width="1000px" height="300px" viewBox="0 0 1000 300" style="enable-background:new 0 0 1000 300;" xml:space="preserve">
<style type="text/css">
<![CDATA[
	.st0{fill-rule:evenodd;clip-rule:evenodd;fill:none;}
	.st1{fill-rule:evenodd;clip-rule:evenodd;}
]]>
</style>
<rect class="st0" width="1000" height="300"/>
<path class="st1" d="M589.8,267.1c15.8,0.6,27.9-6.4,42-7c15.9-0.7,29.5-10.2,37.2-25.5c2.9-5.8,6-11.6,7.9-17.7
	c2.6-8.5,3.8-17.2-3.8-24.5c-1.5-1.4-2.2-4.1-2.5-6.2c-1-7.4-4.1-11-12.1-8.4c-1.9,0.6-4.6-0.2-6.6-1.1c-6.3-2.7-12.4-6.5-19.6-2.1
	c-1.3,0.8-3.6,0.1-5.4-0.3c-8-1.9-16-4-24-5.8c-12.2-2.7-15.2-7.1-13.8-19.4c2.6-23,13.6-42.1,29-58.5c5.5-5.8,13.2-10.5,20.8-13.1
	c12.1-4.2,25-6.6,37.7-8.9c4-0.7,8.6,1.4,12.9,2.2c-0.9,4.2-1.7,8.5-2.7,12.7c-0.4,1.7-1.6,3.3-2.7,5.5c-4,0.4-8.1,1.2-12.2,1
	c-19.6-0.9-31.9,10.6-42.4,24.9c-8.6,11.7-2.6,28.3,11.5,32c11,2.9,22.2,4.8,33.3,7.4c19.2,4.4,31.8,16.8,37.8,34.9
	c2,6,0.7,14.2-1.9,20.2c-6.1,14.3-13.3,28.3-21.1,41.8c-7.8,13.6-21.2,20.4-35.6,24.4c-14.6,4.1-29.7,6.7-44.4,10.8
	c-7.7,2.1-12.7-2.4-17.2-6.3C589.6,278,590.5,272.3,589.8,267.1z"/>
<path class="st1" d="M883.7,88.2c-0.6,7.1-1.2,14.2-1.7,20.9c-8,3.9-13.6,0.7-18.7-3.5C847,92.1,827.7,95.4,809,96.2
	c-5.6,0.2-8.3,4.4-9.1,10.4c-5.2,37.7-5.1,75.3,1.6,112.8c3.1,17.2,6.6,34.3,10.2,51.4c1.1,5.4,1.6,10.5-4.2,13.1
	c-5,2.3-8.8-0.8-11.8-4.7c-0.6-0.7-1.1-1.5-1.8-2.1c-12.4-9.6-17.9-21.3-17.5-37.9c0.5-19.2-4.7-38.5-4.3-57.6
	c0.5-23.4,4-46.7,6.5-70c0.7-6.4,2.1-12.7,3.4-20.1c-11.3-5.4-23.3-5.7-34.9-7.4c-5.4-0.8-11.1-0.8-16.3-2.2c-2.5-0.7-4.2-4-6.3-6.1
	c2.3-2,5-6,6.8-5.7c11.9,2.6,23.7-5.4,35.4,0.1c1.6,0.7,3.6,0.5,5.5,0.6c10.3,0.4,11.8-1,14.1-10.8c2.7-11.6,5.5-23.2,8.8-34.6
	c1-3.7,3.5-7,5.7-11.1c6.5,6.8,7.1,13.9,6.3,21.4c-0.6,6.9-1.3,13.8-2,20.7c-0.5,5.3,1.8,8.7,6.8,10.8c8.6,3.6,17.2,7,26.8,4.6
	c9.7-2.4,17.9,0.3,25.8,6.3C869.8,82.2,876.5,84.5,883.7,88.2z"/>
<path class="st1" d="M862,199.8c2.2-2.6,5.1-5.3,7-8.6c2.3-4,4.1-8.3,5.5-12.7c6.6-19.3,22.4-28,39.5-35.9
	c13.8-6.4,26.9-2.3,39.9,0.8c8.4,2,16.5,5.6,24.3,9.3c6.2,3,7.5,8.5,5.7,15.3c-5.9,23.2-23.3,34.7-43.8,41.8
	c-12.5,4.4-26.1,5.5-39.2,8.2c-2.5,0.5-4.9,1.8-8,3.1c3.8,9.3,11.8,12.8,19.1,15.3c23.4,8.2,44.5,20.1,64.8,33.9
	c4.4,3,9.6,4.9,14.3,7.3c-0.5,6.2-4.7,6.1-8.1,5.5c-5.9-1-11.7-2.6-17.4-4.5c-19.7-6.5-39.4-12.9-59-19.9
	c-8.2-2.9-16.3-6.6-24.1-10.5c-12.2-6.2-15.2-17.6-16.5-30.1C865.5,212.3,863.5,206.3,862,199.8z M926.4,158.5
	c-17.3,0.3-32.9,14.3-35.6,31.9c-1.4,9.5,2,12.8,11.7,11c5.4-1,10.8-2.5,16.2-3.4c19.3-3.3,19.3-3.2,22.8-22.2
	C943.9,162.7,940.1,158.3,926.4,158.5z"/>
<path class="st1" d="M41.3,70.9c1.4,2.7,3.4,4.9,3.7,7.4c2,14.5,3.7,29.1,5.3,43.6c0.8,6.9,1.3,13.8,2,20.6
	c3,27.4,1.8,55.3,8.6,82.4c2.2,8.8,4.5,10.5,13.5,8.4c17-3.8,34-7.7,51-11c12.2-2.3,24.6-5.3,36.8-5c9.7,0.2,19.5,4.5,28.9,8.1
	c3.9,1.5,5.7,6,3.2,10.6c-2.3,4.3-3.2,10.3-10,9.8c-3.2-0.2-6.2-1.8-9.4-2.1c-7.7-0.8-15.5-1-23.2-1.7c-24.3-2.2-47.5,5.8-71.3,7.4
	c-8.4,0.6-16.6,4.9-24.8,7.5c-10.8,3.4-16,0.9-17.2-10.1c-2.8-25.2-5.8-50.4-6.7-75.7c-1-27.6,0.3-55.4,0.7-83.1
	C32.6,81.4,31.7,73.8,41.3,70.9z"/>
<path class="st1" d="M476.3,213.5c-29-2.3-53.8,3.5-78.5,8.6c-12.2,2.5-24.1,5-36.7,4.4c-11.3-0.5-18.3-4.9-21.7-15.5
	c-1-3.1-1.9-6.2-2.4-9.4c-4.1-27.3-14.4-53.6-12.8-81.8c0.4-7.1,0.6-14.1,6.5-18.9c2.6-2.1,6.2-4.3,9.2-4.2c1.6,0,3.9,4.7,4.5,7.5
	c3,13.5,5.8,27.1,8.1,40.7c2.8,16.8,5.1,33.7,7.6,50.6c1.6,10.6,8.2,16,18.7,12.5c17-5.6,35.1-5.1,51.9-13.2c12.6-6,28-0.5,41.3,4.8
	C474.4,200.5,474.5,207.1,476.3,213.5z"/>
<path class="st1" d="M544.1,111.3c3.8-5.2,7.4-10.1,12.7-17.2c4,12.5,3.6,22.4,3.5,32.3c-0.3,15.9-4.2,31.8,2.6,47.6
	c2.9,6.7-2.8,12.9-10.2,12.4c-2.3-0.1-4.9-0.4-6.7-1.6c-10.2-6.9-21.9-6.4-33.3-7c-16.1-0.9-31-5-42.7-16.9c-1-1-2.1-1.8-3.3-2.6
	c-13-8.6-12.5-8.5-7.9-22.8c4.5-13.9,11.9-24.6,25.9-30.4c6.5-2.7,12.8-4.5,20.1-2.9c6.7,1.5,13.9,0.9,20.6,2.4
	C531.9,106.1,538.1,109.1,544.1,111.3z M538.7,158.7c1-4.1,2-7.2,2.4-10.3c1.6-13,0.5-14.5-11.9-19.2c-3.4-1.3-6.5-3.7-9.9-4.7
	c-8.3-2.4-16.7-5.5-25.2-6c-9.4-0.6-16.4,4.8-19.3,14.3C491.9,151.1,511.9,161.5,538.7,158.7z"/>
<path class="st1" d="M237,131.5c11.4-4.5,18.5-2.1,21.4,8.2c2.5,9.3,3.6,19,5.5,28.5c3.4,17.1,6.9,34.2,10.2,51.3
	c1.3,6.8,2.7,13.6,3.5,20.4c0.3,2.3-1.3,4.9-2.6,9.3c-14.9-11.4-21.3-27-30.4-40.4C236.3,197,234.3,165.1,237,131.5z"/>
<path class="st1" d="M256.3,81.1c-0.4,8.4-5.1,11.7-11.2,13.7c-12.3,4-25-3.4-24.1-13.9c1-10.5,19.2-20.8,27.7-14.7
	C252.8,69.1,253.9,76,256.3,81.1z"/>
</svg>
